<svg data-v-423bf9ae="" xmlns="http://www.w3.org/2000/svg" viewBox="0 0 523 112" class="iconLeft"><!----><!----><!----><g data-v-423bf9ae="" id="d46ed3f7-f4f8-4a21-bc18-33314629f2d0" fill="white" transform="matrix(4.720691999836127,0,0,4.720691999836127,129.25659957512522,11.899415621206856)"><path d="M3.70 12.74L3.70 12.74Q2.63 12.74 1.88 12.25L1.88 12.25L1.88 12.25Q1.13 11.76 0.76 10.95L0.76 10.95L0.76 10.95Q0.39 10.14 0.39 9.20L0.39 9.20L0.39 9.20Q0.39 8.27 0.76 7.45L0.76 7.45L0.76 7.45Q1.13 6.64 1.88 6.14L1.88 6.14L1.88 6.14Q2.62 5.63 3.68 5.63L3.68 5.63L3.68 5.63Q4.72 5.63 5.49 6.14L5.49 6.14L5.49 6.14Q6.25 6.65 6.64 7.65L6.64 7.65L5.05 8.26L5.05 8.26Q4.92 7.76 4.55 7.45L4.55 7.45L4.55 7.45Q4.18 7.14 3.68 7.14L3.68 7.14L3.68 7.14Q3.14 7.14 2.78 7.43L2.78 7.43L2.78 7.43Q2.42 7.72 2.25 8.19L2.25 8.19L2.25 8.19Q2.08 8.66 2.08 9.20L2.08 9.20L2.08 9.20Q2.08 9.75 2.25 10.21L2.25 10.21L2.25 10.21Q2.41 10.67 2.77 10.95L2.77 10.95L2.77 10.95Q3.13 11.23 3.68 11.23L3.68 11.23L3.68 11.23Q4.18 11.23 4.55 10.93L4.55 10.93L4.55 10.93Q4.92 10.64 5.05 10.14L5.05 10.14L6.57 10.72L6.57 10.72Q6.23 11.68 5.47 12.21L5.47 12.21L5.47 12.21Q4.71 12.74 3.70 12.74L3.70 12.74ZM10.71 12.74L10.71 12.74Q9.69 12.74 8.89 12.26L8.89 12.26L8.89 12.26Q8.09 11.78 7.65 10.96L7.65 10.96L7.65 10.96Q7.21 10.14 7.21 9.17L7.21 9.17L7.21 9.17Q7.21 8.21 7.65 7.40L7.65 7.40L7.65 7.40Q8.09 6.59 8.89 6.11L8.89 6.11L8.89 6.11Q9.69 5.63 10.71 5.63L10.71 5.63L10.71 5.63Q11.74 5.63 12.54 6.11L12.54 6.11L12.54 6.11Q13.34 6.59 13.77 7.40L13.77 7.40L13.77 7.40Q14.21 8.21 14.21 9.17L14.21 9.17L14.21 9.17Q14.21 10.14 13.77 10.96L13.77 10.96L13.77 10.96Q13.34 11.78 12.54 12.26L12.54 12.26L12.54 12.26Q11.74 12.74 10.71 12.74L10.71 12.74ZM10.71 11.31L10.71 11.31Q11.31 11.31 11.71 11.02L11.71 11.02L11.71 11.02Q12.11 10.73 12.29 10.24L12.29 10.24L12.29 10.24Q12.48 9.76 12.48 9.17L12.48 9.17L12.48 9.17Q12.48 8.26 12.04 7.67L12.04 7.67L12.04 7.67Q11.61 7.08 10.71 7.08L10.71 7.08L10.71 7.08Q10.11 7.08 9.71 7.36L9.71 7.36L9.71 7.36Q9.32 7.64 9.13 8.11L9.13 8.11L9.13 8.11Q8.95 8.59 8.95 9.17L8.95 9.17L8.95 9.17Q8.95 9.76 9.13 10.24L9.13 10.24L9.13 10.24Q9.32 10.73 9.71 11.02L9.71 11.02L9.71 11.02Q10.11 11.31 10.71 11.31L10.71 11.31ZM15.57 12.61L15.57 5.78L17.22 5.78L17.22 6.57L17.22 6.57Q17.61 6.10 18.15 5.87L18.15 5.87L18.15 5.87Q18.69 5.63 19.24 5.63L19.24 5.63L19.24 5.63Q20.08 5.63 20.64 6.04L20.64 6.04L20.64 6.04Q21.20 6.44 21.45 7.09L21.45 7.09L21.45 7.09Q21.71 7.75 21.71 8.50L21.71 8.50L21.71 12.61L20.06 12.61L20.06 8.72L20.06 8.72Q20.06 8.03 19.72 7.60L19.72 7.60L19.72 7.60Q19.38 7.17 18.76 7.17L18.76 7.17L18.76 7.17Q18.03 7.17 17.62 7.59L17.62 7.59L17.62 7.59Q17.22 8.00 17.22 8.87L17.22 8.87L17.22 12.61L15.57 12.61ZM25.93 12.74L25.93 12.74Q25.26 12.74 24.78 12.50L24.78 12.50L24.78 12.50Q24.29 12.25 24.04 11.80L24.04 11.80L24.04 11.80Q23.78 11.34 23.78 10.72L23.78 10.72L23.78 7.17L22.68 7.17L22.68 5.78L23.81 5.78L23.81 4.08L25.44 2.89L25.44 5.78L27.16 5.78L27.16 7.17L25.44 7.17L25.44 10.42L25.44 10.42Q25.44 10.89 25.64 11.08L25.64 11.08L25.64 11.08Q25.85 11.27 26.21 11.27L26.21 11.27L26.21 11.27Q26.45 11.27 26.70 11.20L26.70 11.20L26.70 11.20Q26.95 11.13 27.16 11.03L27.16 11.03L27.16 12.54L27.16 12.54Q26.95 12.62 26.60 12.68L26.60 12.68L26.60 12.68Q26.26 12.74 25.93 12.74L25.93 12.74ZM30.52 12.74L30.52 12.74Q29.82 12.74 29.25 12.48L29.25 12.48L29.25 12.48Q28.69 12.22 28.37 11.71L28.37 11.71L28.37 11.71Q28.04 11.20 28.04 10.51L28.04 10.51L28.04 10.51Q28.04 9.46 28.78 9.00L28.78 9.00L28.78 9.00Q29.51 8.53 30.76 8.53L30.76 8.53L32.54 8.53L32.54 8.53Q32.54 7.87 32.19 7.48L32.19 7.48L32.19 7.48Q31.84 7.09 31.19 7.09L31.19 7.09L31.19 7.09Q30.65 7.09 30.24 7.36L30.24 7.36L30.24 7.36Q29.83 7.63 29.59 8.05L29.59 8.05L28.31 7.13L28.31 7.13Q28.83 6.41 29.53 6.02L29.53 6.02L29.53 6.02Q30.22 5.63 31.18 5.63L31.18 5.63L31.18 5.63Q32.09 5.63 32.76 5.99L32.76 5.99L32.76 5.99Q33.43 6.34 33.78 6.99L33.78 6.99L33.78 6.99Q34.13 7.63 34.13 8.46L34.13 8.46L34.13 12.61L32.76 12.61L32.65 11.63L32.65 11.63Q32.23 12.24 31.71 12.49L31.71 12.49L31.71 12.49Q31.18 12.74 30.52 12.74L30.52 12.74ZM30.76 11.33L30.76 11.33Q31.23 11.33 31.63 11.11L31.63 11.11L31.63 11.11Q32.03 10.89 32.28 10.52L32.28 10.52L32.28 10.52Q32.53 10.16 32.54 9.73L32.54 9.73L30.86 9.73L30.86 9.73Q30.32 9.73 30.03 9.97L30.03 9.97L30.03 9.97Q29.75 10.21 29.75 10.56L29.75 10.56L29.75 10.56Q29.75 10.91 30.02 11.12L30.02 11.12L30.02 11.12Q30.28 11.33 30.76 11.33L30.76 11.33ZM38.62 12.74L38.62 12.74Q37.55 12.74 36.80 12.25L36.80 12.25L36.80 12.25Q36.05 11.76 35.68 10.95L35.68 10.95L35.68 10.95Q35.31 10.14 35.31 9.20L35.31 9.20L35.31 9.20Q35.31 8.27 35.68 7.45L35.68 7.45L35.68 7.45Q36.05 6.64 36.79 6.14L36.79 6.14L36.79 6.14Q37.54 5.63 38.60 5.63L38.60 5.63L38.60 5.63Q39.64 5.63 40.41 6.14L40.41 6.14L40.41 6.14Q41.17 6.65 41.56 7.65L41.56 7.65L39.97 8.26L39.97 8.26Q39.83 7.76 39.47 7.45L39.47 7.45L39.47 7.45Q39.10 7.14 38.60 7.14L38.60 7.14L38.60 7.14Q38.06 7.14 37.70 7.43L37.70 7.43L37.70 7.43Q37.34 7.72 37.17 8.19L37.17 8.19L37.17 8.19Q37.00 8.66 37.00 9.20L37.00 9.20L37.00 9.20Q37.00 9.75 37.17 10.21L37.17 10.21L37.17 10.21Q37.33 10.67 37.69 10.95L37.69 10.95L37.69 10.95Q38.05 11.23 38.60 11.23L38.60 11.23L38.60 11.23Q39.09 11.23 39.46 10.93L39.46 10.93L39.46 10.93Q39.83 10.64 39.97 10.14L39.97 10.14L41.49 10.72L41.49 10.72Q41.15 11.68 40.39 12.21L40.39 12.21L40.39 12.21Q39.63 12.74 38.62 12.74L38.62 12.74ZM45.20 12.74L45.20 12.74Q44.53 12.74 44.05 12.50L44.05 12.50L44.05 12.50Q43.57 12.25 43.31 11.80L43.31 11.80L43.31 11.80Q43.05 11.34 43.05 10.72L43.05 10.72L43.05 7.17L41.95 7.17L41.95 5.78L43.08 5.78L43.08 4.08L44.71 2.89L44.71 5.78L46.43 5.78L46.43 7.17L44.71 7.17L44.71 10.42L44.71 10.42Q44.71 10.89 44.91 11.08L44.91 11.08L44.91 11.08Q45.12 11.27 45.48 11.27L45.48 11.27L45.48 11.27Q45.72 11.27 45.97 11.20L45.97 11.20L45.97 11.20Q46.22 11.13 46.43 11.03L46.43 11.03L46.43 12.54L46.43 12.54Q46.22 12.62 45.87 12.68L45.87 12.68L45.87 12.68Q45.53 12.74 45.20 12.74L45.20 12.74ZM47.93 12.61L47.93 5.78L49.61 5.78L49.61 6.49L49.61 6.49Q49.93 6.05 50.38 5.84L50.38 5.84L50.38 5.84Q50.83 5.63 51.34 5.63L51.34 5.63L51.34 5.63Q52.60 5.63 53.27 6.84L53.27 6.84L53.27 6.84Q53.65 6.23 54.24 5.93L54.24 5.93L54.24 5.93Q54.84 5.63 55.53 5.63L55.53 5.63L55.53 5.63Q56.36 5.63 56.93 6.04L56.93 6.04L56.93 6.04Q57.50 6.44 57.77 7.09L57.77 7.09L57.77 7.09Q58.05 7.75 58.05 8.50L58.05 8.50L58.05 12.61L56.36 12.61L56.36 8.72L56.36 8.72Q56.36 8.01 56.11 7.60L56.11 7.60L56.11 7.60Q55.86 7.18 55.25 7.18L55.25 7.18L55.25 7.18Q54.82 7.18 54.49 7.41L54.49 7.41L54.49 7.41Q54.17 7.63 54.00 8.01L54.00 8.01L54.00 8.01Q53.83 8.39 53.83 8.85L53.83 8.85L53.83 12.61L52.13 12.61L52.13 8.69L52.13 8.69Q52.13 7.99 51.89 7.59L51.89 7.59L51.89 7.59Q51.65 7.18 51.05 7.18L51.05 7.18L51.05 7.18Q50.61 7.18 50.28 7.41L50.28 7.41L50.28 7.41Q49.96 7.63 49.78 8.01L49.78 8.01L49.78 8.01Q49.61 8.39 49.61 8.85L49.61 8.85L49.61 12.61L47.93 12.61ZM61.71 12.74L61.71 12.74Q61.00 12.74 60.44 12.48L60.44 12.48L60.44 12.48Q59.88 12.22 59.55 11.71L59.55 11.71L59.55 11.71Q59.23 11.20 59.23 10.51L59.23 10.51L59.23 10.51Q59.23 9.46 59.96 9.00L59.96 9.00L59.96 9.00Q60.70 8.53 61.95 8.53L61.95 8.53L63.72 8.53L63.72 8.53Q63.72 7.87 63.38 7.48L63.38 7.48L63.38 7.48Q63.03 7.09 62.38 7.09L62.38 7.09L62.38 7.09Q61.83 7.09 61.42 7.36L61.42 7.36L61.42 7.36Q61.02 7.63 60.77 8.05L60.77 8.05L59.49 7.13L59.49 7.13Q60.02 6.41 60.71 6.02L60.71 6.02L60.71 6.02Q61.41 5.63 62.36 5.63L62.36 5.63L62.36 5.63Q63.28 5.63 63.95 5.99L63.95 5.99L63.95 5.99Q64.61 6.34 64.97 6.99L64.97 6.99L64.97 6.99Q65.32 7.63 65.32 8.46L65.32 8.46L65.32 12.61L63.94 12.61L63.83 11.63L63.83 11.63Q63.42 12.24 62.89 12.49L62.89 12.49L62.89 12.49Q62.36 12.74 61.71 12.74L61.71 12.74ZM61.95 11.33L61.95 11.33Q62.41 11.33 62.82 11.11L62.82 11.11L62.82 11.11Q63.22 10.89 63.46 10.52L63.46 10.52L63.46 10.52Q63.71 10.16 63.72 9.73L63.72 9.73L62.04 9.73L62.04 9.73Q61.50 9.73 61.22 9.97L61.22 9.97L61.22 9.97Q60.94 10.21 60.94 10.56L60.94 10.56L60.94 10.56Q60.94 10.91 61.20 11.12L61.20 11.12L61.20 11.12Q61.47 11.33 61.95 11.33L61.95 11.33ZM67.08 4.48L67.08 2.95L68.84 2.95L68.84 4.48L67.08 4.48ZM66.81 15.60L66.81 15.60Q66.52 15.60 66.19 15.53L66.19 15.53L66.19 15.53Q65.85 15.47 65.63 15.38L65.63 15.38L66.05 13.94L66.05 13.94Q66.42 14.09 66.65 14.09L66.65 14.09L66.65 14.09Q67.13 14.09 67.13 13.45L67.13 13.45L67.13 5.78L68.80 5.78L68.80 13.32L68.80 13.32Q68.80 13.97 68.59 14.48L68.59 14.48L68.59 14.48Q68.37 15.00 67.93 15.30L67.93 15.30L67.93 15.30Q67.48 15.60 66.81 15.60L66.81 15.60ZM73.65 12.74L73.65 12.74Q72.63 12.74 71.83 12.26L71.83 12.26L71.83 12.26Q71.03 11.78 70.59 10.96L70.59 10.96L70.59 10.96Q70.15 10.14 70.15 9.17L70.15 9.17L70.15 9.17Q70.15 8.21 70.59 7.40L70.59 7.40L70.59 7.40Q71.03 6.59 71.83 6.11L71.83 6.11L71.83 6.11Q72.63 5.63 73.65 5.63L73.65 5.63L73.65 5.63Q74.68 5.63 75.48 6.11L75.48 6.11L75.48 6.11Q76.28 6.59 76.71 7.40L76.71 7.40L76.71 7.40Q77.15 8.21 77.15 9.17L77.15 9.17L77.15 9.17Q77.15 10.14 76.71 10.96L76.71 10.96L76.71 10.96Q76.28 11.78 75.48 12.26L75.48 12.26L75.48 12.26Q74.68 12.74 73.65 12.74L73.65 12.74ZM73.65 11.31L73.65 11.31Q74.25 11.31 74.65 11.02L74.65 11.02L74.65 11.02Q75.04 10.73 75.23 10.24L75.23 10.24L75.23 10.24Q75.41 9.76 75.41 9.17L75.41 9.17L75.41 9.17Q75.41 8.26 74.98 7.67L74.98 7.67L74.98 7.67Q74.55 7.08 73.65 7.08L73.65 7.08L73.65 7.08Q73.05 7.08 72.65 7.36L72.65 7.36L72.65 7.36Q72.26 7.64 72.07 8.11L72.07 8.11L72.07 8.11Q71.89 8.59 71.89 9.17L71.89 9.17L71.89 9.17Q71.89 9.76 72.07 10.24L72.07 10.24L72.07 10.24Q72.26 10.73 72.65 11.02L72.65 11.02L72.65 11.02Q73.05 11.31 73.65 11.31L73.65 11.31ZM78.50 12.61L78.50 5.78L80.13 5.78L80.13 6.92L80.13 6.92Q80.34 6.32 80.86 5.98L80.86 5.98L80.86 5.98Q81.37 5.63 81.96 5.63L81.96 5.63L81.96 5.63Q82.31 5.63 82.64 5.76L82.64 5.76L82.64 5.76Q82.97 5.88 83.21 6.13L83.21 6.13L82.46 7.49L82.46 7.49Q82.11 7.26 81.71 7.26L81.71 7.26L81.71 7.26Q81.30 7.26 80.93 7.52L80.93 7.52L80.93 7.52Q80.57 7.79 80.34 8.34L80.34 8.34L80.34 8.34Q80.12 8.89 80.12 9.72L80.12 9.72L80.12 12.61L78.50 12.61Z"></path></g><!----><g data-v-423bf9ae="" id="7a264166-8bc7-4a88-8623-8bd8bc98732a" transform="matrix(1.1109776814778647,0,0,1.1109776814778647,0.4511583065420055,0.4577866066130767)" stroke="none" fill="white"><path clip-rule="evenodd" d="M47.102 0h5.784c8.338.642 15.042 2.917 20.99 5.95a976.829 976.829 0 0 1-29.253 29.252c-2.969-3.846-6.214-6.932-13.221-6.279-6.848.638-12.008 6.789-12.065 13.552-.093 11.1 12.636 17.426 21.981 11.239 2.455-1.625 4.708-4.378 6.941-6.611 6.658-6.659 13.369-13.473 19.997-20.164 5.471 4.927 10.706 10.542 16.196 16.032.574.574 2.305 1.916 2.314 2.148.021.503-3.571 3.738-3.967 4.132-4.035 4.035-8.129 8.161-12.23 11.9-2.845-5.982-12.565-8.104-18.84-4.297-3.834 2.326-6.286 6.06-6.446 11.238-.221 7.125 4.855 13.32 11.9 14.047 9.767 1.009 13.735-5.969 18.51-10.742 8.042-8.042 16.394-16.425 24.295-23.963.308 16.392-5.383 28.214-13.388 36.524-8.017 8.322-18.679 14.98-33.715 16.03h-5.784c-14.023-1.231-24.828-6.812-32.558-14.543C6.814 77.715 1.225 66.916 0 52.887v-5.785C.812 33.583 7.182 22 14.709 14.544 22.682 6.645 33.328 1.089 47.102 0z"></path></g><!----></svg>