<svg data-v-423bf9ae="" xmlns="http://www.w3.org/2000/svg" viewBox="0 0 398.5670419651996 60" class="font"><!----><!----><!----><g data-v-423bf9ae="" id="d6c8498d-2744-494d-94be-42ea331aa66e" fill="white" transform="matrix(5.240532398223877,0,0,5.240532398223877,-1.289665699005127,-18.505630493164062)"><path d="M5.17 3.58L5.17 3.58L5.17 3.58Q3.95 3.55 3.11 3.94L3.11 3.94L3.11 3.94Q2.26 4.33 1.41 5.43L1.41 5.43L1.41 5.43Q0.56 6.53 0.33 7.80L0.33 7.80L0.33 7.80Q0.10 9.07 0.51 10.00L0.51 10.00L0.51 10.00Q0.92 10.93 1.65 11.61L1.65 11.61L1.65 11.61Q2.38 12.28 3.42 12.57L3.42 12.57L3.42 12.57Q4.47 12.86 5.46 12.54L5.46 12.54L5.46 12.54Q6.45 12.22 7.88 10.55L7.88 10.55L7.73 10.48L7.73 10.48Q6.12 11.93 4.22 11.27L4.22 11.27L4.22 11.27Q2.32 10.62 1.71 8.85L1.71 8.85L1.71 8.85Q1.10 7.08 1.86 5.91L1.86 5.91L1.86 5.91Q2.62 4.74 3.85 4.72L3.85 4.72L3.85 4.72Q5.09 4.70 5.54 5.17L5.54 5.17L5.54 5.17Q6.00 5.63 6.10 5.95L6.10 5.95L7.56 5.18L7.56 5.18Q7.51 4.72 6.95 4.16L6.95 4.16L6.95 4.16Q6.40 3.60 5.17 3.58ZM10.97 6.48L10.97 6.48L10.97 6.48Q9.86 6.51 9.15 7.03L9.15 7.03L9.15 7.03Q8.44 7.55 8.12 8.19L8.12 8.19L8.12 8.19Q7.80 8.84 7.78 9.76L7.78 9.76L7.78 9.76Q7.75 10.68 8.44 11.62L8.44 11.62L8.44 11.62Q9.13 12.56 10.14 12.71L10.14 12.71L10.14 12.71Q11.15 12.85 12.01 12.33L12.01 12.33L12.01 12.33Q12.87 11.80 13.30 11.12L13.30 11.12L13.30 11.12Q13.74 10.45 13.76 9.35L13.76 9.35L13.76 9.35Q13.77 8.26 12.93 7.36L12.93 7.36L12.93 7.36Q12.09 6.46 10.97 6.48ZM10.67 7.44L10.67 7.44L10.67 7.44Q11.72 7.82 12.14 8.91L12.14 8.91L12.14 8.91Q12.57 9.99 12.52 10.67L12.52 10.67L12.52 10.67Q12.46 11.34 11.89 11.71L11.89 11.71L11.89 11.71Q11.32 12.08 10.37 11.56L10.37 11.56L10.37 11.56Q9.43 11.05 9.12 9.91L9.12 9.91L9.12 9.91Q8.82 8.77 9.23 7.92L9.23 7.92L9.23 7.92Q9.63 7.07 10.67 7.44ZM15.91 6.38L14.60 6.89L14.60 12.73L15.98 12.15L15.98 8.05L15.98 8.05Q16.64 7.22 17.62 7.37L17.62 7.37L17.62 7.37Q18.61 7.53 18.57 8.48L18.57 8.48L18.57 12.77L19.91 12.18L19.91 8.25L19.91 8.25Q20.00 7.35 19.34 6.87L19.34 6.87L19.34 6.87Q18.68 6.40 17.72 6.56L17.72 6.56L17.72 6.56Q16.75 6.72 15.91 7.73L15.91 7.73L15.91 6.38ZM23.05 4.44L21.81 4.94L21.81 6.84L21.52 6.84L20.37 7.86L21.81 7.86L21.73 10.19L21.73 10.19Q21.74 11.87 22.62 12.42L22.62 12.42L22.62 12.42Q23.50 12.97 24.39 12.56L24.39 12.56L24.39 12.56Q25.28 12.15 25.60 11.09L25.60 11.09L25.50 10.93L25.50 10.93Q24.61 12.06 23.73 11.64L23.73 11.64L23.73 11.64Q22.86 11.22 23.01 9.78L23.01 9.78L23.06 7.85L23.90 7.85L25.97 6.79L23.04 6.79L23.05 4.44ZM29.27 6.43L29.27 6.43L29.27 6.43Q28.36 6.36 27.34 6.88L27.34 6.88L27.34 6.88Q26.33 7.40 26.45 8.65L26.45 8.65L28.01 7.95L28.01 7.95Q27.90 7.10 28.64 6.96L28.64 6.96L28.64 6.96Q29.39 6.82 29.80 7.21L29.80 7.21L29.80 7.21Q30.22 7.61 30.16 8.80L30.16 8.80L30.16 8.80Q29.70 8.50 29.08 8.42L29.08 8.42L29.08 8.42Q28.46 8.33 27.45 8.85L27.45 8.85L27.45 8.85Q26.44 9.37 26.19 10.38L26.19 10.38L26.19 10.38Q25.94 11.38 26.72 12.06L26.72 12.06L26.72 12.06Q27.49 12.73 28.22 12.70L28.22 12.70L28.22 12.70Q28.94 12.67 29.31 12.39L29.31 12.39L29.31 12.39Q29.67 12.10 30.18 11.57L30.18 11.57L30.18 11.57Q30.17 12.44 30.38 12.76L30.38 12.76L31.73 12.04L31.73 12.04Q31.39 11.63 31.46 11.02L31.46 11.02L31.46 8.16L31.46 8.16Q31.49 7.49 30.84 6.99L30.84 6.99L30.84 6.99Q30.19 6.50 29.27 6.43ZM30.21 9.32L30.19 9.68L30.19 11.18L30.19 11.18Q29.03 12.11 28.09 11.55L28.09 11.55L28.09 11.55Q27.14 10.99 27.01 10.16L27.01 10.16L27.01 10.16Q26.89 9.34 27.83 9.31L27.83 9.31L27.83 9.31Q28.78 9.28 29.58 10.00L29.58 10.00L30.21 9.32ZM35.80 6.50L35.80 6.50L35.80 6.50Q34.45 6.27 33.53 7.11L33.53 7.11L33.53 7.11Q32.60 7.96 32.41 9.11L32.41 9.11L32.41 9.11Q32.22 10.27 32.64 11.14L32.64 11.14L32.64 11.14Q33.06 12.02 33.76 12.37L33.76 12.37L33.76 12.37Q34.47 12.73 35.18 12.74L35.18 12.74L35.18 12.74Q35.90 12.76 36.56 12.16L36.56 12.16L36.56 12.16Q37.22 11.57 37.67 10.54L37.67 10.54L37.57 10.47L37.57 10.47Q36.63 11.42 35.77 11.47L35.77 11.47L35.77 11.47Q34.90 11.52 34.34 11.17L34.34 11.17L34.34 11.17Q33.79 10.82 33.44 10.13L33.44 10.13L33.44 10.13Q33.10 9.44 33.30 8.56L33.30 8.56L33.30 8.56Q33.51 7.67 34.16 7.39L34.16 7.39L34.16 7.39Q34.81 7.12 35.41 7.45L35.41 7.45L35.41 7.45Q36.02 7.78 36.27 8.78L36.27 8.78L37.47 7.99L37.47 7.99Q37.15 6.73 35.80 6.50ZM40.61 4.44L39.37 4.94L39.37 6.84L39.07 6.84L37.93 7.86L39.36 7.86L39.29 10.19L39.29 10.19Q39.29 11.87 40.17 12.42L40.17 12.42L40.17 12.42Q41.05 12.97 41.94 12.56L41.94 12.56L41.94 12.56Q42.83 12.15 43.16 11.09L43.16 11.09L43.06 10.93L43.06 10.93Q42.16 12.06 41.29 11.64L41.29 11.64L41.29 11.64Q40.41 11.22 40.56 9.78L40.56 9.78L40.61 7.85L41.45 7.85L43.52 6.79L40.60 6.79L40.61 4.44ZM51.71 8.61L53.82 5.17L53.82 12.70L55.08 12.39L55.08 3.61L53.83 4.09L51.41 8.09L48.70 3.53L47.52 4.07L47.52 12.70L48.67 12.33L48.67 5.93L50.87 9.54L51.88 8.93L51.71 8.61ZM58.95 6.43L58.95 6.43L58.95 6.43Q58.03 6.36 57.02 6.88L57.02 6.88L57.02 6.88Q56 7.40 56.12 8.65L56.12 8.65L57.69 7.95L57.69 7.95Q57.57 7.10 58.32 6.96L58.32 6.96L58.32 6.96Q59.06 6.82 59.48 7.21L59.48 7.21L59.48 7.21Q59.90 7.61 59.83 8.80L59.83 8.80L59.83 8.80Q59.38 8.50 58.76 8.42L58.76 8.42L58.76 8.42Q58.14 8.33 57.13 8.85L57.13 8.85L57.13 8.85Q56.12 9.37 55.87 10.38L55.87 10.38L55.87 10.38Q55.62 11.38 56.39 12.06L56.39 12.06L56.39 12.06Q57.17 12.73 57.89 12.70L57.89 12.70L57.89 12.70Q58.62 12.67 58.98 12.39L58.98 12.39L58.98 12.39Q59.34 12.10 59.86 11.57L59.86 11.57L59.86 11.57Q59.85 12.44 60.05 12.76L60.05 12.76L61.41 12.04L61.41 12.04Q61.07 11.63 61.13 11.02L61.13 11.02L61.13 8.16L61.13 8.16Q61.16 7.49 60.51 6.99L60.51 6.99L60.51 6.99Q59.86 6.50 58.95 6.43ZM59.88 9.32L59.87 9.68L59.87 11.18L59.87 11.18Q58.71 12.11 57.76 11.55L57.76 11.55L57.76 11.55Q56.81 10.99 56.69 10.16L56.69 10.16L56.69 10.16Q56.56 9.34 57.51 9.31L57.51 9.31L57.51 9.31Q58.45 9.28 59.25 10.00L59.25 10.00L59.88 9.32ZM63.97 6.39L62.62 6.95L62.62 12.26L62.62 12.26Q62.62 14.14 61.75 14.89L61.75 14.89L61.87 14.98L61.87 14.98Q64.16 14.18 63.98 11.05L63.98 11.05L63.97 6.39ZM63.93 3.55L62.67 4.14L62.67 5.58L63.93 5.06L63.93 3.55ZM68.22 6.48L68.22 6.48L68.22 6.48Q67.10 6.51 66.39 7.03L66.39 7.03L66.39 7.03Q65.69 7.55 65.37 8.19L65.37 8.19L65.37 8.19Q65.04 8.84 65.02 9.76L65.02 9.76L65.02 9.76Q65.00 10.68 65.69 11.62L65.69 11.62L65.69 11.62Q66.38 12.56 67.39 12.71L67.39 12.71L67.39 12.71Q68.39 12.85 69.25 12.33L69.25 12.33L69.25 12.33Q70.11 11.80 70.55 11.12L70.55 11.12L70.55 11.12Q70.98 10.45 71.00 9.35L71.00 9.35L71.00 9.35Q71.02 8.26 70.17 7.36L70.17 7.36L70.17 7.36Q69.33 6.46 68.22 6.48ZM67.92 7.44L67.92 7.44L67.92 7.44Q68.96 7.82 69.39 8.91L69.39 8.91L69.39 8.91Q69.82 9.99 69.76 10.67L69.76 10.67L69.76 10.67Q69.71 11.34 69.14 11.71L69.14 11.71L69.14 11.71Q68.56 12.08 67.62 11.56L67.62 11.56L67.62 11.56Q66.67 11.05 66.37 9.91L66.37 9.91L66.37 9.91Q66.06 8.77 66.47 7.92L66.47 7.92L66.47 7.92Q66.88 7.07 67.92 7.44ZM73.12 6.51L71.85 7.03L71.85 12.73L73.17 12.12L73.17 8.05L73.17 8.05Q73.81 7.22 74.40 7.37L74.40 7.37L74.40 7.37Q74.99 7.53 75.07 8.26L75.07 8.26L76.30 7.46L76.30 7.46Q76.16 6.62 75.14 6.50L75.14 6.50L75.14 6.50Q74.13 6.38 73.11 7.73L73.11 7.73L73.12 6.51Z"></path></g><!----><!----></svg>