<?xml version="1.0" encoding="UTF-8" standalone="no"?>
<!-- Created with Inkscape (http://www.inkscape.org/) -->
<svg xmlns:dc="http://purl.org/dc/elements/1.1/" xmlns:cc="http://creativecommons.org/ns#" xmlns:rdf="http://www.w3.org/1999/02/22-rdf-syntax-ns#" xmlns:svg="http://www.w3.org/2000/svg" xmlns="http://www.w3.org/2000/svg" xmlns:sodipodi="http://sodipodi.sourceforge.net/DTD/sodipodi-0.dtd" xmlns:inkscape="http://www.inkscape.org/namespaces/inkscape" width="500" height="252.36" id="svg2" version="1.1" inkscape:version="0.91 r13725" sodipodi:docname="Skyrock_logo.svg">
  <metadata id="metadata51">
    <rdf:RDF>
      <cc:Work rdf:about="">
        <dc:format>image/svg+xml</dc:format>
        <dc:type rdf:resource="http://purl.org/dc/dcmitype/StillImage"/>
        <dc:title/>
      </cc:Work>
    </rdf:RDF>
  </metadata>
  <defs id="defs49"/>
  <sodipodi:namedview pagecolor="#ffffff" bordercolor="#666666" borderopacity="1" objecttolerance="10" gridtolerance="10" guidetolerance="10" inkscape:pageopacity="0" inkscape:pageshadow="2" inkscape:window-width="1280" inkscape:window-height="691" id="namedview47" showgrid="false" inkscape:zoom="0.86587771" inkscape:cx="199.01726" inkscape:cy="-0.9601164" inkscape:window-x="0" inkscape:window-y="1" inkscape:window-maximized="1" inkscape:current-layer="layer1"/>
  <g inkscape:label="Layer 1" inkscape:groupmode="layer" id="layer1" transform="translate(-69.383446,-112.77158)">
    <g id="g4622" transform="matrix(0.98620953,0,0,0.98618472,0.95683044,5.0443949)">
      <g id="g4594">
        <path style="color:#000000;font-style:normal;font-variant:normal;font-weight:normal;font-stretch:normal;font-size:medium;line-height:normal;font-family:sans-serif;text-indent:0;text-align:start;text-decoration:none;text-decoration-line:none;text-decoration-style:solid;text-decoration-color:#000000;letter-spacing:normal;word-spacing:normal;text-transform:none;direction:ltr;block-progression:tb;writing-mode:lr-tb;baseline-shift:baseline;text-anchor:start;white-space:normal;clip-rule:nonzero;display:inline;overflow:visible;visibility:visible;opacity:1;isolation:auto;mix-blend-mode:normal;color-interpolation:sRGB;color-interpolation-filters:linearRGB;solid-color:#000000;solid-opacity:1;fill:#221e1f;fill-opacity:1;fill-rule:nonzero;stroke:none;stroke-width:3;stroke-linecap:butt;stroke-linejoin:miter;stroke-miterlimit:4;stroke-dasharray:none;stroke-dashoffset:0;stroke-opacity:1;color-rendering:auto;image-rendering:auto;shape-rendering:auto;text-rendering:auto;enable-background:accumulate" d="m 69.383446,331.21158 c 165.747404,0.0912 330.568604,-0.0929 496.316004,0 l -34.2071,-93.996 34.2071,-93.99632 -496.316004,-2.6e-4 0,93.99658 z" id="path4390" inkscape:connector-curvature="0" sodipodi:nodetypes="ccccccc"/>
        <path id="path4386" d="m 528.49145,237.21555 33.596,90.74005 -489.704006,-0.0221 0,-181.61396 489.704006,-1e-5 z" style="fill:#ffffff;fill-rule:nonzero;stroke:none" clip-path="none" inkscape:connector-curvature="0" sodipodi:nodetypes="cccccc"/>
        <path id="path4392" d="m 523.68803,237.21558 32.27842,87.58436 c -0.1765,-0.0221 -481.398138,0.0662 -481.398138,0.0662 l 0,-175.27053 481.398138,-0.0221 z" style="fill:#ee1638;fill-rule:nonzero;stroke:none" clip-path="none" inkscape:connector-curvature="0" sodipodi:nodetypes="cccccc"/>
      </g>
      <g id="g4571">
        <g id="g4543">
          <path clip-path="none" style="fill:#ffffff;fill-rule:nonzero;stroke:none" d="m 154.41525,248.46106 0,28.1086 c -0.13238,12.95113 -9.50927,26.49797 -26.3656,26.49797 l 0.9046,0 c -16.85633,0 -26.21116,-13.54684 -26.29941,-26.49797 l -0.0221,-14.12049 20.38645,0 0,22.90167 11.09782,0 -0.0441,-30.2708 -30.97681,-40.04481 0,-21.31311 c 0.15444,-12.9732 9.50926,-26.52004 26.36559,-26.52004 l -0.90459,0 c 16.85633,0 26.23322,13.54684 26.2994,26.52004 l 0.0441,11.2302 -20.38645,0 0,-20.03344 -10.96544,0 -0.0662,23.62975 30.97682,40.06688 -0.0441,-0.15445" id="path4398" inkscape:connector-curvature="0"/>
          <path clip-path="none" style="fill:none;stroke:#221e1f;stroke-width:3.04198813;stroke-linecap:butt;stroke-linejoin:miter;stroke-miterlimit:4;stroke-dasharray:none" d="m 154.41525,248.46106 0,28.1086 c -0.13238,12.95113 -9.50927,26.49797 -26.3656,26.49797 l 0.9046,0 c -16.85633,0 -26.21116,-13.54684 -26.29941,-26.49797 l -0.0221,-14.12049 20.38645,0 0,22.90167 11.09782,0 -0.0441,-30.2708 -30.97681,-40.04481 0,-21.31311 c 0.15444,-12.9732 9.50926,-26.52004 26.36559,-26.52004 l -0.90459,0 c 16.85633,0 26.23322,13.54684 26.2994,26.52004 l 0.0441,11.2302 -20.38645,0 0,-20.03344 -10.96544,0 -0.0662,23.62975 30.97682,40.06688 -0.0441,-0.15445 z" stroke-miterlimit="4" id="path4400" inkscape:connector-curvature="0"/>
        </g>
        <g id="g4547">
          <path sodipodi:nodetypes="cccccccccccc" inkscape:connector-curvature="0" clip-path="none" style="fill:#ffffff;fill-rule:nonzero;stroke:none" d="m 221.4655,301.23638 -20.32027,-0.0662 -16.21649,-49.64233 0,49.6644 -20.73947,0 0,-129.66578 20.73947,0 0,40.48608 17.01077,-40.48608 20.45264,0 -24.15927,59.43842 z" id="path4406"/>
          <path sodipodi:nodetypes="cccccccccccc" inkscape:connector-curvature="0" clip-path="none" style="fill:none;stroke:#221e1f;stroke-width:3.04198813;stroke-linecap:butt;stroke-linejoin:miter;stroke-miterlimit:4;stroke-dasharray:none" d="m 221.4655,301.23638 -20.32027,-0.0662 -16.21649,-49.64233 0,49.6644 -20.73947,0 0,-129.66578 20.73947,0 0,40.48608 17.01077,-40.48608 20.45264,0 -24.15927,59.43842 z" stroke-miterlimit="4" id="path4408"/>
        </g>
        <g id="g4551">
          <path clip-path="none" style="fill:#ffffff;fill-rule:nonzero;stroke:none" d="m 248.47093,220.66136 6.19977,-49.13488 19.879,0 -15.99586,81.70025 0,47.96553 -21.02629,0 0,-52.28993 -15.1354,-77.37585 20.73947,0 5.33931,49.13488" id="path4410" inkscape:connector-curvature="0"/>
          <path clip-path="none" style="fill:none;stroke:#221e1f;stroke-width:3.04198813;stroke-linecap:butt;stroke-linejoin:miter;stroke-miterlimit:4;stroke-dasharray:none" d="m 248.47093,220.66136 6.19977,-49.13488 19.879,0 -15.99586,81.70025 0,47.96553 -21.02629,0 0,-52.28993 -15.1354,-77.37585 20.73947,0 5.33931,49.13488 z" stroke-miterlimit="4" id="path4412" inkscape:connector-curvature="0"/>
        </g>
        <g id="g4563">
          <path clip-path="none" style="fill:#ffffff;fill-rule:nonzero;stroke:none" d="m 424.71225,285.85829 10.96544,0 0,-34.72757 20.38645,0 -0.0441,25.94639 c -0.0662,12.95114 -9.44307,26.49798 -26.2994,26.49798 l 0.90459,0 c -16.85633,0 -26.23321,-13.54684 -26.36559,-26.49798 l 0,-83.44325 c 0.13238,-12.95113 9.50926,-26.49797 26.36559,-26.49797 l -0.90459,0 c 16.85633,0 26.23321,13.54684 26.2994,26.49797 l 0.0441,17.2976 -20.38645,0 0,-26.07877 -10.96544,0 0,101.0056" id="path4414" inkscape:connector-curvature="0"/>
          <path clip-path="none" style="fill:none;stroke:#221e1f;stroke-width:3.04198813;stroke-linecap:butt;stroke-linejoin:miter;stroke-miterlimit:4;stroke-dasharray:none" d="m 424.71225,285.85829 10.96544,0 0,-34.72757 20.38645,0 -0.0441,25.94639 c -0.0662,12.95114 -9.44307,26.49798 -26.2994,26.49798 l 0.90459,0 c -16.85633,0 -26.23321,-13.54684 -26.36559,-26.49798 l 0,-83.44325 c 0.13238,-12.95113 9.50926,-26.49797 26.36559,-26.49797 l -0.90459,0 c 16.85633,0 26.23321,13.54684 26.2994,26.49797 l 0.0441,17.2976 -20.38645,0 0,-26.07877 -10.96544,0 0,101.0056 z" stroke-miterlimit="4" id="path4416" inkscape:connector-curvature="0"/>
        </g>
        <g id="g4567">
          <path clip-path="none" style="fill:#ffffff;fill-rule:nonzero;stroke:none" d="m 499.35226,230.9649 23.23261,70.27148 -20.32026,-0.0662 -16.19444,-49.64233 0,49.6644 -20.76152,0 0,-129.66578 20.76152,0 0,40.48608 16.98871,-40.48608 20.45265,0 -24.15927,59.43842" id="path4420" inkscape:connector-curvature="0"/>
          <path clip-path="none" style="fill:none;stroke:#221e1f;stroke-width:3.04198813;stroke-linecap:butt;stroke-linejoin:miter;stroke-miterlimit:4;stroke-dasharray:none" d="m 499.35226,230.9649 23.23261,70.27148 -20.32026,-0.0662 -16.19444,-49.64233 0,49.6644 -20.76152,0 0,-129.66578 20.76152,0 0,40.48608 16.98871,-40.48608 20.45265,0 -24.15927,59.43842 z" stroke-miterlimit="4" id="path4422" inkscape:connector-curvature="0"/>
        </g>
        <g id="g4555">
          <path clip-path="none" style="fill:#ffffff;fill-rule:nonzero;stroke:none" d="m 330.458,240.6948 0,60.49746 -20.4747,0 0,-60.49746 -10.94338,0 0,60.49746 -21.02629,0 0,-129.66578 39.758,0 c 7.63388,0 12.68637,2.00775 12.68637,8.6488 l 0,43.22192 c 0,0 0,8.36198 -8.6488,8.93562 5.03043,0.4192 8.6488,4.45678 8.6488,8.36198 z m -31.41808,-15.28984 10.94955,0 0,-40.34047 -10.94955,0 z" id="path4424" inkscape:connector-curvature="0"/>
          <path clip-path="none" style="fill:none;stroke:#221e1f;stroke-width:3.04198813;stroke-linecap:butt;stroke-linejoin:miter;stroke-miterlimit:4;stroke-dasharray:none" d="m 330.458,240.6948 0,60.49746 -20.4747,0 0,-60.49746 -10.94338,0 0,60.49746 -21.02629,0 0,-129.66578 39.758,0 c 7.63388,0 12.68637,2.00775 12.68637,8.6488 l 0,43.22192 c 0,0 0,8.36198 -8.6488,8.93562 5.03043,0.4192 8.6488,4.45678 8.6488,8.36198 z m -31.41808,-15.28984 10.94955,0 0,-40.34047 -10.94955,0 z" stroke-miterlimit="4" id="path4426" inkscape:connector-curvature="0"/>
        </g>
        <g id="g4559">
          <path clip-path="none" style="fill:#ffffff;fill-rule:nonzero;stroke:none" d="m 394.3532,276.28284 c -0.0662,12.95113 -9.44307,26.49797 -26.2994,26.49797 l 0.90459,0 c -16.85633,0 -26.23322,-13.54684 -26.3656,-26.49797 l 0,-83.00199 c 0.13238,-12.9732 9.50927,-26.49797 26.3656,-26.49797 l -0.90459,0 c 16.85633,0 26.23321,13.52477 26.2994,26.49797 l 0,83.00199 z m -20.34232,-91.20952 -10.94956,0 0,100.27752 10.94956,0 z" id="path4428" inkscape:connector-curvature="0"/>
          <path clip-path="none" style="fill:none;stroke:#221e1f;stroke-width:3.04198813;stroke-linecap:butt;stroke-linejoin:miter;stroke-miterlimit:4;stroke-dasharray:none" d="m 394.3532,276.28284 c -0.0662,12.95113 -9.44307,26.49797 -26.2994,26.49797 l 0.90459,0 c -16.85633,0 -26.23322,-13.54684 -26.3656,-26.49797 l 0,-83.00199 c 0.13238,-12.9732 9.50927,-26.49797 26.3656,-26.49797 l -0.90459,0 c 16.85633,0 26.23321,13.52477 26.2994,26.49797 l 0,83.00199 z m -20.34232,-91.20952 -10.94956,0 0,100.27752 10.94956,0 z" stroke-miterlimit="4" id="path4430" inkscape:connector-curvature="0"/>
        </g>
      </g>
      <g id="g4618">
        <path id="path4432" d="m 361.94227,142.71186 35.94105,-7.50151 8.20754,-25.50513 3.81694,23.21055 30.75618,-6.4866 -26.27734,29.16763 6.68517,41.501 -25.19624,-23.1223 -17.87124,19.30535 8.93562,-27.3805 -24.99768,-23.18849" style="fill:#0e88d3;fill-rule:nonzero;stroke:none" clip-path="none" inkscape:connector-curvature="0"/>
        <path style="fill:none;stroke:#221e1f;stroke-width:3.04198813;stroke-linecap:butt;stroke-linejoin:miter;stroke-miterlimit:4;stroke-dasharray:none" d="m 361.94227,142.71186 35.94105,-7.50151 8.20754,-25.50513 3.81694,23.21055 30.75618,-6.4866 -26.27734,29.16763 6.68517,41.501 -25.19624,-23.1223 -17.87124,19.30535 8.93562,-27.3805 -24.99768,-23.18849 z" stroke-miterlimit="4" id="path4436" inkscape:connector-curvature="0"/>
      </g>
      <g id="g4599">
        <path id="path4438" d="m 576.3751,365.13158 -10.06085,-31.15332 -496.930804,0 0,31.15332 506.991654,0" style="fill:#221e1f;fill-rule:nonzero;stroke:none" clip-path="none" inkscape:connector-curvature="0" sodipodi:nodetypes="ccccc"/>
        <g id="g3711" transform="translate(588.75355,6.280685)" style="fill:#ffffff">
          <path clip-path="none" style="fill:#ffffff;fill-rule:nonzero;stroke:none" d="m -436.61447,338.66303 -0.35301,-0.81634 -0.97078,-0.86047 -1.23555,0 -0.0441,0.97078 0.15444,0.59571 -0.0221,0.9046 -0.22063,0.5957 0.0441,0.37508 0.0883,2.09601 -0.1765,0.15444 0.1765,0.17651 0.0221,0.1765 0.28682,0.0662 1.14729,-0.4192 0.8384,-1.32379 -0.0441,-0.94872 0.11031,-1.01491 0.19857,-0.72809 z m 2.66966,2.77997 -0.4192,2.14014 -0.61778,0.57364 -0.77221,1.30173 -1.78712,0.39714 -0.83841,0 -0.50745,-0.0221 0.0441,0.22063 0.19857,0.15444 -0.30888,0.72809 -0.17651,0.2427 0.26476,0.52952 -0.22063,0.72808 0.30888,0.4854 -0.26476,0.68396 0.0883,2.29458 -0.28682,0.4192 -0.92666,0 -0.57365,0.19857 -1.54442,-0.30889 -0.13238,-1.98569 0.13238,-2.55934 -0.0441,-0.94872 -0.0662,-1.10316 0.0662,-0.86047 -0.0662,-0.97078 0.26476,-2.25046 -0.35301,-1.23554 0.24269,-2.33871 -0.0662,-0.55158 0.0883,-0.66189 -0.37508,-0.2427 0.26476,-0.55158 -0.0662,-0.0662 0.17651,-0.72809 -0.11032,-0.0882 0,-0.48539 2.1622,-0.55159 3.2433,0.26476 1.23554,0.44127 -0.17651,0.15444 0.63984,0.30889 0.37507,0.63983 0.44127,0.35301 0.37507,0.75015 0.28683,1.14729 0.0883,1.76507 0.17651,0.48539 -0.46333,1.10316" id="path3415" inkscape:connector-curvature="0"/>
          <path clip-path="none" style="fill:#ffffff;fill-rule:nonzero;stroke:none" d="m -417.27587,338.2328 -0.0662,-0.46333 -0.22063,-0.79427 -0.6619,-0.26476 -0.35301,0.0221 -0.0883,0.0662 -0.11032,0.28682 -0.15444,1.65475 -0.0441,1.32379 0.0441,0.9046 -0.19857,0.77221 0.19857,0.19857 0.11032,-0.15444 0.24269,0 0.68396,-0.2427 0,-0.35301 0.35301,-0.15444 0.0883,-0.55159 0.35301,-0.48539 -0.0882,-0.66189 0.1765,-0.57365 -0.26476,-0.52952 z m 5.51582,12.77463 -0.46333,0.70602 -1.05904,0.70603 -0.63983,0.11031 -1.47824,-1.98569 0,-0.1765 -1.56649,-2.51522 -0.28682,0 -0.46333,-1.36792 -0.59571,-0.13238 -0.13238,-1.23554 -0.33095,-0.37508 -0.33095,0.28683 0.0441,-0.0221 0.30889,0.17651 -0.35302,1.52236 0.0662,1.61062 -0.19857,0.26476 0.4854,2.09601 -0.26476,0.88253 -1.78713,0.28682 -0.39714,0.0221 -1.05903,-0.33095 -0.0441,-1.69887 0.35301,-0.63984 -0.22063,-0.81634 0.15444,-2.44902 -0.0883,-1.5003 0.28682,-1.72094 -0.1765,-0.97078 0.19857,-0.92666 -0.28683,-0.48539 0.33095,-1.38998 0.0221,-2.33871 0.0662,-0.50745 0.0882,-0.30889 -0.0441,-0.22063 -0.28682,-0.77222 0.70602,-0.61777 0.39714,0.11032 0.44127,-0.17651 1.0811,-0.0883 2.20632,0.17651 1.5003,0.57364 0.0221,0.35301 0.68396,0.26476 0.6619,1.14729 0.11031,0.99285 0.37508,0.35301 -0.17651,1.47824 -0.19857,0.75015 0.0883,0.48539 -0.63984,0.55158 -0.0221,0.0441 0.0441,0.0662 -0.33094,1.19141 -0.44127,0.17651 c 0,0.0221 0,0.50746 0,0.50746 l -0.86047,0.30888 0.0221,0.15444 0.55158,0.15445 0,0.61777 0.22063,0.28682 0.70603,0.44127 0,0.44126 0.46332,0.26476 0.0221,0.4192 0.26476,0.26476 0.0882,0.44127 0.35301,0.57364 0.61777,0.33095 0.0441,0.88253 0.77221,0.61777 0.46333,0.68396 0.11032,0.35302 0.37507,0.48539 -0.57364,0.15444" id="path3417" inkscape:connector-curvature="0"/>
          <path clip-path="none" style="fill:#ffffff;fill-rule:nonzero;stroke:none" d="m -191.3893,349.17616 0.0662,0.68396 -0.17651,1.94157 -1.38999,0.1765 -0.77221,0.0221 -0.13238,0.11031 -0.75015,-0.26476 -1.67681,0.35302 -0.11031,-0.11032 -0.77222,0.26476 -0.50745,-0.26476 -0.61777,0.37508 -0.41921,-0.0883 -0.68396,0.30889 -0.0882,-0.30889 -0.55158,0.26476 0.13238,-1.76506 0.50745,-1.96363 0,-2.44902 0.37508,-0.70603 -0.19857,-0.52951 0.11031,-3.68457 0.0662,-0.11031 -0.39713,-0.9046 0.33094,-0.37507 0,-4.45678 0.11032,-0.57365 -0.11032,-1.05903 2.71379,-0.19857 0.61777,0 -0.2427,0.52952 0.26476,0.19857 -0.15444,0.8384 0.0441,0.19857 -0.0441,1.23554 -0.22064,0.90459 0.26476,0.19857 -0.22063,2.44903 0.17651,0.55158 0.0441,0.30888 -0.35301,0.33095 0.22063,0.22063 -0.28682,0.46333 0.19857,0.37508 -0.0441,0.4192 0.30889,0.28682 -0.50745,0.72809 -0.13238,1.21348 0.13238,0.52952 -0.22064,0.52952 0.44127,0.77221 -0.28682,0.59571 0.26475,0.22063 -0.19856,0.77221 0.15444,0.68397 1.19141,-0.19857 1.45618,0.11031 1.10316,-0.26476 0.79428,-0.30888 0.17651,0.4192" id="path3433" inkscape:connector-curvature="0"/>
          <path clip-path="none" style="fill:#ffffff;fill-rule:nonzero;stroke:none" d="m -250.62128,335.94917 -0.0662,1.0811 0.22063,0.33095 -0.24269,0.39713 0.24269,0.41921 0.0441,0.92665 -0.35301,0.97079 0.11031,0.11031 0.13238,0.55158 0.13238,0 -0.11031,1.05904 -0.0883,0.52952 0.0662,0.0662 0.11032,2.1622 0,0.72809 -0.17651,0.37507 0.17651,0.57365 -0.37508,1.38997 -0.4192,0.75015 -0.13238,0.75016 -1.16935,1.72094 -1.10316,1.0149 -1.23555,0.44126 -0.97078,0 -1.65474,0.0883 -0.57365,-0.61777 -0.15444,0.15445 -0.8384,-0.28684 -0.55159,-0.57364 -0.22063,-0.86047 -0.28682,-0.37507 -0.15444,-2.64759 -0.26476,-0.30889 0.26476,-1.01491 -0.39714,-1.19142 0.39714,-1.69887 -0.11032,-0.39713 0.13238,-0.61777 -0.11032,-0.44126 0.33095,-0.3089 -0.22063,-0.33094 0.26476,-0.33095 -0.19857,-0.92665 0.17651,-0.28682 -0.17651,-0.33095 0.17651,-1.85332 0.26475,-0.70602 -0.26475,-0.55158 0.0883,-0.2427 0.0883,-0.61777 0.46333,-0.0441 2.77997,0 -0.0441,0.97079 -0.1765,0.35301 -0.0221,1.43411 -0.28682,1.85331 0.33095,0.28683 -0.33095,0.77221 -0.0662,2.07395 -0.15444,0.39714 0.15444,0.46332 -0.22063,0.46333 0.22063,0.44126 -0.11031,0.90459 -0.11032,1.14729 0.26476,0.2427 -0.15444,0.79427 0.11031,1.38999 0.79428,0.61777 1.12523,-0.11031 0.8384,-0.75016 0.11032,-0.72808 0.66189,-0.94871 0.17651,-1.23555 -0.19857,-0.26476 0.28682,-0.30888 -0.1765,-0.33095 0.19857,-1.94157 0,-0.92665 -0.28683,-0.39714 0.26476,-1.27967 -0.28682,-0.2427 0.30889,-1.21348 0,-0.90459 -0.46333,-0.48539 0.1765,-0.63984 -0.26475,-0.39714 0.26475,-0.57364 -0.1765,-0.15444 0,-1.36792 0.37507,-0.19857 0.9046,0.26476 0.8384,-0.28683 0.75015,0.17651 0.55158,0 0.15445,0.81634 -0.37508,0.79428" id="path3439" inkscape:connector-curvature="0"/>
          <path inkscape:connector-curvature="0" id="path3451" d="m -352.57537,337.58194 -0.19858,0.26476 0.35302,1.19142 -0.11031,0.90459 0,1.76506 -0.13239,0.83841 -0.11032,0.57364 0.15445,0.11032 0,0.90459 -0.0441,1.19142 -0.19857,0.4192 0.37507,0.68396 -0.50745,0.77221 0.0441,0 0.44128,0.50745 -0.17651,1.10316 -0.19858,0.24271 0.22064,0.68396 0,1.0811 0.0441,0.83839 -1.16935,0.35301 -0.68397,-0.26475 -1.25761,0.26475 -0.41919,0.0441 0,-0.90458 0.41919,-2.71378 -0.11031,-4.08171 0.28682,-0.39714 0,-3.26536 -0.28682,-0.33095 0.26476,-1.52236 -0.26476,-0.26476 0.28682,-2.91235 -0.26476,-0.94872 1.89744,-0.22063 1.72094,0 -0.37507,3.08885" style="fill:#ffffff;fill-rule:nonzero;stroke:none" clip-path="none"/>
          <path inkscape:connector-curvature="0" id="path3453" d="m -392.09059,335.28724 -0.17651,1.96363 -0.81634,0.33095 -1.80919,-0.26476 -1.47824,0.33095 -0.0883,0.52952 0.46333,0.72809 -0.63984,1.2576 0.15445,0.75015 1.14729,0.22063 0.35301,-0.11031 1.25761,0.13238 0.28682,-0.2427 0.55158,0 0,0.77222 0.22063,0.28682 -0.24268,2.07394 -2.80205,0.0883 -1.03697,0.4192 0.13238,1.58855 -0.19856,0.19857 0.17649,0.28683 0.0221,0.72808 -0.0221,1.25761 -0.17649,0.28682 0.0882,0.0883 2.31665,-0.13237 0.68397,-0.19857 0.0662,0.22063 0.52952,-0.37508 0.61777,0 -0.11032,1.10317 0.11032,1.65474 0,0.55158 -0.57364,0.28682 -1.67681,-0.0441 -0.48539,-0.13239 -0.94873,0.26477 -1.16935,0.13238 -0.28683,0.19857 -1.38998,-0.0883 -0.97077,0.0441 0.28681,-0.6619 0,-4.65535 -0.26475,-4.05964 0.28681,-0.4192 0,-0.72809 0.11032,-2.42695 -0.19856,-0.68396 0.4192,-0.37508 -0.17651,-1.0811 0.19856,-1.21348 -0.26475,-1.14729 0.26475,-0.52952 2.89029,0.0883 1.78712,-0.2427 0.41921,-0.30889 0.50745,0.28683 1.78713,0 -0.13238,0.97078" style="fill:#ffffff;fill-rule:nonzero;stroke:none" clip-path="none"/>
          <path inkscape:connector-curvature="0" id="path3455" d="m -367.67772,336.10367 0.19857,0.11032 -0.33095,0.59571 0.19857,0.4192 0.28682,0.33095 -0.4192,0.70602 -0.11032,1.34586 -0.1765,1.83125 -0.19857,0.68396 0.19857,1.34586 -0.11032,0.39714 0.11032,0.63983 0.0441,0.26476 -0.15444,0.19857 0.11032,0.52952 -0.19857,0.55158 0,1.05904 0.37507,1.2576 -0.24269,0.75015 0.0662,1.47824 0.35301,0.41921 -0.37508,0.77221 -1.94156,0.15444 -0.57365,0.35301 -0.55158,0.0441 -0.11032,-2.51521 0.28683,-0.4192 -0.28683,-2.84616 0.15445,-0.19857 -0.17651,-0.39714 0.19857,-0.22063 -0.17651,-0.30889 0.26476,-1.69887 -0.11031,-2.31664 -0.33095,0.77221 -0.48539,1.76506 0,0.26476 -0.55158,1.21348 -0.17651,1.9195 -0.75015,0.22064 -0.39714,-0.17651 -0.19857,0.2427 -0.88253,0 -0.86047,-1.9857 -0.68396,-2.71378 -0.70602,-1.38998 -0.17651,0.61777 0.28682,0.61777 -0.1765,0.72809 0.33095,0.55158 -0.22064,0.44126 -0.30888,0.28683 0.1765,0.1765 0.0221,0.2427 0.0221,0.44126 -0.0662,0.30889 0.0221,0.50745 -0.28682,0.4854 0.55158,0.57364 -0.50745,0.68396 0,1.43411 0.22063,0.30889 -0.35301,2.02982 -1.5003,0.1765 -0.99285,0.37508 -0.72809,0.0221 0.63984,-2.02982 -0.4192,-1.41205 0.46332,-0.86046 -0.1765,-2.91235 0.37507,-0.55158 -0.19857,-0.4854 0.37508,-1.47823 -0.17651,-2.53728 0.22064,-0.46333 0.0662,-1.52236 -0.28683,-0.26476 0.41921,-1.21348 -0.15445,-0.46333 0.39714,-0.61777 -0.24269,-1.05904 0.88253,-0.30888 1.41204,0 0.30889,-0.11032 0.57364,0 0.81635,1.38999 -0.22064,0.33094 -0.0221,0 0.33095,0 0,0.68397 0.48539,0.19857 -0.22063,0.57364 0.48539,0.4192 -0.19857,0.17651 0.35301,0.92667 0.28682,0.28681 0.0221,0.90459 -0.11032,0.0441 0.48539,1.38998 0.97079,-2.5814 0,-0.39713 0.39714,-0.26477 0.4192,-1.32378 0.52952,-0.50746 0.28682,-0.94872 0.37507,-0.33095 0,-0.57364 0.41921,-0.68396 1.76506,0.19857 0.66189,-0.17651 0.63984,0 -0.33095,2.09601" style="fill:#ffffff;fill-rule:nonzero;stroke:none" clip-path="none"/>
          <path clip-path="none" style="fill:#ffffff;fill-rule:nonzero;stroke:none" d="m -333.10448,335.28724 -0.17651,1.96363 -0.81634,0.33095 -1.80919,-0.26476 -1.47824,0.33095 -0.0883,0.52952 0.46333,0.72809 -0.63984,1.2576 0.15445,0.75015 1.14729,0.22063 0.35301,-0.11031 1.25761,0.13238 0.28682,-0.2427 0.55158,0 0,0.77222 0.22063,0.28682 -0.24268,2.07394 -2.80205,0.0883 -1.03697,0.4192 0.13238,1.58855 -0.19856,0.19857 0.17649,0.28683 0.0221,0.72808 -0.0221,1.25761 -0.17649,0.28682 0.0882,0.0883 2.31665,-0.13237 0.68397,-0.19857 0.0662,0.22063 0.52952,-0.37508 0.61777,0 -0.11032,1.10317 0.11032,1.65474 0,0.55158 -0.57364,0.28682 -1.67681,-0.0441 -0.48539,-0.13239 -0.94873,0.26477 -1.16935,0.13238 -0.28683,0.19857 -1.38998,-0.0883 -0.97077,0.0441 0.28681,-0.6619 0,-4.65535 -0.26475,-4.05964 0.28681,-0.4192 0,-0.72809 0.11032,-2.42695 -0.19856,-0.68396 0.4192,-0.37508 -0.17651,-1.0811 0.19856,-1.21348 -0.26475,-1.14729 0.26475,-0.52952 2.89029,0.0883 1.78712,-0.2427 0.41921,-0.30889 0.50745,0.28683 1.78713,0 -0.13238,0.97078" id="path3457" inkscape:connector-curvature="0"/>
          <path inkscape:connector-curvature="0" id="path3459" d="m -316.76669,338.2328 -0.0662,-0.46333 -0.22063,-0.79427 -0.6619,-0.26476 -0.35301,0.0221 -0.0883,0.0662 -0.11032,0.28682 -0.15444,1.65475 -0.0441,1.32379 0.0441,0.9046 -0.19857,0.77221 0.19857,0.19857 0.11032,-0.15444 0.24269,0 0.68396,-0.2427 0,-0.35301 0.35301,-0.15444 0.0883,-0.55159 0.35301,-0.48539 -0.0882,-0.66189 0.1765,-0.57365 -0.26476,-0.52952 z m 5.51582,12.77463 -0.46333,0.70602 -1.05904,0.70603 -0.63983,0.11031 -1.47824,-1.98569 0,-0.1765 -1.56649,-2.51522 -0.28682,0 -0.46333,-1.36792 -0.59571,-0.13238 -0.13238,-1.23554 -0.33095,-0.37508 -0.33095,0.28683 0.0441,-0.0221 0.30889,0.17651 -0.35302,1.52236 0.0662,1.61062 -0.19857,0.26476 0.4854,2.09601 -0.26476,0.88253 -1.78713,0.28682 -0.39714,0.0221 -1.05903,-0.33095 -0.0441,-1.69887 0.35301,-0.63984 -0.22063,-0.81634 0.15444,-2.44902 -0.0883,-1.5003 0.28682,-1.72094 -0.1765,-0.97078 0.19857,-0.92666 -0.28683,-0.48539 0.33095,-1.38998 0.0221,-2.33871 0.0662,-0.50745 0.0882,-0.30889 -0.0441,-0.22063 -0.28682,-0.77222 0.70602,-0.61777 0.39714,0.11032 0.44127,-0.17651 1.0811,-0.0883 2.20632,0.17651 1.5003,0.57364 0.0221,0.35301 0.68396,0.26476 0.6619,1.14729 0.11031,0.99285 0.37508,0.35301 -0.17651,1.47824 -0.19857,0.75015 0.0883,0.48539 -0.63984,0.55158 -0.0221,0.0441 0.0441,0.0662 -0.33094,1.19141 -0.44127,0.17651 c 0,0.0221 0,0.50746 0,0.50746 l -0.86047,0.30888 0.0221,0.15444 0.55158,0.15445 0,0.61777 0.22063,0.28682 0.70603,0.44127 0,0.44126 0.46332,0.26476 0.0221,0.4192 0.26476,0.26476 0.0882,0.44127 0.35301,0.57364 0.61777,0.33095 0.0441,0.88253 0.77221,0.61777 0.46333,0.68396 0.11032,0.35302 0.37507,0.48539 -0.57364,0.15444" style="fill:#ffffff;fill-rule:nonzero;stroke:none" clip-path="none"/>
          <path inkscape:connector-curvature="0" id="path3461" d="m -271.52859,337.60396 -0.99284,0.79428 -0.17651,0.24269 -0.68396,0 -0.81634,-0.92666 -0.39714,-0.26475 -0.75015,0.0441 -0.4192,-0.0221 -0.68396,0.4192 -0.17651,0.0221 0.0662,0.17651 -0.33095,0.8384 0.0883,0.52952 0.55159,0.9046 0.37507,0.22063 0.0662,0.48539 0.61777,0.39714 0.68396,0.44126 0.41921,0.63984 0.35301,0.0221 0.26476,0.52952 0.28682,0 0.88253,1.43411 0.0883,0.61777 0.63984,0.37508 -0.22064,0.46333 0.22064,0.44126 -0.17651,1.27967 -0.19857,0.77222 -0.35301,0.44126 -0.0221,0.4192 -0.30889,0.37508 -0.4192,0.44126 -0.11032,0.55158 -0.59571,0.0883 -0.70602,0.46333 -0.72809,0.0221 -0.50745,0.48539 -0.37508,-0.13238 -0.1765,0.35301 -1.96363,-0.1765 -0.70603,-0.15444 -1.21348,-0.6619 -0.79427,-0.15445 -0.41921,-0.48539 0.35302,-0.61777 0.28682,-0.15444 0.0662,-0.44127 0.4192,-0.26476 0.35301,-0.72808 0.99285,0.46333 0.37507,0.26475 0.35302,-0.0221 0.4192,0.22063 0.63983,0.0883 0.59571,-0.13238 0.37508,-0.35302 0.55158,-0.0883 0.0662,-0.48539 0.30888,-1.47824 -0.33095,-0.50745 0.0221,-0.79428 -0.55158,-0.26476 -0.11032,-0.3089 -0.6619,0 0,-0.52951 -0.4192,-0.41921 -0.59571,0.19857 -0.26476,-0.52951 -0.39714,-0.17651 0,-0.77221 -0.37507,-0.57365 -0.48539,-0.61777 -0.52952,-0.79428 0.11031,-0.26476 -0.30888,-0.0883 -0.15444,-1.69887 0.57364,-1.10316 -0.13238,-0.4854 0.33095,-0.24269 0.2427,-0.55158 0.94872,-0.30889 0.0221,-0.30888 0.63983,-0.19857 0.30889,-0.41921 1.36792,-0.0883 0,-0.0662 0.88253,-0.15444 0.77222,0.28682 0.88253,0.35301 0.5957,0 1.16936,0.81634 0.52952,0.99285 -0.41921,0.59571" style="fill:#ffffff;fill-rule:nonzero;stroke:none" clip-path="none"/>
          <path clip-path="none" style="fill:#ffffff;fill-rule:nonzero;stroke:none" d="m -234.76672,338.2328 -0.0662,-0.46333 -0.22063,-0.79427 -0.6619,-0.26476 -0.35301,0.0221 -0.0883,0.0662 -0.11032,0.28682 -0.15444,1.65475 -0.0441,1.32379 0.0441,0.9046 -0.19857,0.77221 0.19857,0.19857 0.11032,-0.15444 0.24269,0 0.68396,-0.2427 0,-0.35301 0.35301,-0.15444 0.0883,-0.55159 0.35301,-0.48539 -0.0882,-0.66189 0.1765,-0.57365 -0.26476,-0.52952 z m 5.51582,12.77463 -0.46333,0.70602 -1.05904,0.70603 -0.63983,0.11031 -1.47824,-1.98569 0,-0.1765 -1.56649,-2.51522 -0.28682,0 -0.46333,-1.36792 -0.59571,-0.13238 -0.13238,-1.23554 -0.33095,-0.37508 -0.33095,0.28683 0.0441,-0.0221 0.30889,0.17651 -0.35302,1.52236 0.0662,1.61062 -0.19857,0.26476 0.4854,2.09601 -0.26476,0.88253 -1.78713,0.28682 -0.39714,0.0221 -1.05903,-0.33095 -0.0441,-1.69887 0.35301,-0.63984 -0.22063,-0.81634 0.15444,-2.44902 -0.0883,-1.5003 0.28682,-1.72094 -0.1765,-0.97078 0.19857,-0.92666 -0.28683,-0.48539 0.33095,-1.38998 0.0221,-2.33871 0.0662,-0.50745 0.0882,-0.30889 -0.0441,-0.22063 -0.28682,-0.77222 0.70602,-0.61777 0.39714,0.11032 0.44127,-0.17651 1.0811,-0.0883 2.20632,0.17651 1.5003,0.57364 0.0221,0.35301 0.68396,0.26476 0.6619,1.14729 0.11031,0.99285 0.37508,0.35301 -0.17651,1.47824 -0.19857,0.75015 0.0883,0.48539 -0.63984,0.55158 -0.0221,0.0441 0.0441,0.0662 -0.33094,1.19141 -0.44127,0.17651 c 0,0.0221 0,0.50746 0,0.50746 l -0.86047,0.30888 0.0221,0.15444 0.55158,0.15445 0,0.61777 0.22063,0.28682 0.70603,0.44127 0,0.44126 0.46332,0.26476 0.0221,0.4192 0.26476,0.26476 0.0882,0.44127 0.35301,0.57364 0.61777,0.33095 0.0441,0.88253 0.77221,0.61777 0.46333,0.68396 0.11032,0.35302 0.37507,0.48539 -0.57364,0.15444" id="path3463" inkscape:connector-curvature="0"/>
          <path inkscape:connector-curvature="0" id="path3465" d="m -171.85478,335.28724 -0.17651,1.96363 -0.81634,0.33095 -1.80919,-0.26476 -1.47824,0.33095 -0.0883,0.52952 0.46333,0.72809 -0.63984,1.2576 0.15445,0.75015 1.14729,0.22063 0.35301,-0.11031 1.25761,0.13238 0.28682,-0.2427 0.55158,0 0,0.77222 0.22063,0.28682 -0.24268,2.07394 -2.80205,0.0883 -1.03697,0.4192 0.13238,1.58855 -0.19856,0.19857 0.17649,0.28683 0.0221,0.72808 -0.0221,1.25761 -0.17649,0.28682 0.0882,0.0883 2.31665,-0.13237 0.68397,-0.19857 0.0662,0.22063 0.52952,-0.37508 0.61777,0 -0.11032,1.10317 0.11032,1.65474 0,0.55158 -0.57364,0.28682 -1.67681,-0.0441 -0.48539,-0.13239 -0.94873,0.26477 -1.16935,0.13238 -0.28683,0.19857 -1.38998,-0.0883 -0.97077,0.0441 0.28681,-0.6619 0,-4.65535 -0.26475,-4.05964 0.28681,-0.4192 0,-0.72809 0.11032,-2.42695 -0.19856,-0.68396 0.4192,-0.37508 -0.17651,-1.0811 0.19856,-1.21348 -0.26475,-1.14729 0.26475,-0.52952 2.89029,0.0883 1.78712,-0.2427 0.41921,-0.30889 0.50745,0.28683 1.78713,0 -0.13238,0.97078" style="fill:#ffffff;fill-rule:nonzero;stroke:none" clip-path="none"/>
          <path inkscape:connector-curvature="0" id="path3467" d="m -138.46714,338.2328 -0.0662,-0.46333 -0.22063,-0.79427 -0.6619,-0.26476 -0.35301,0.0221 -0.0883,0.0662 -0.11032,0.28682 -0.15444,1.65475 -0.0441,1.32379 0.0441,0.9046 -0.19857,0.77221 0.19857,0.19857 0.11032,-0.15444 0.24269,0 0.68396,-0.2427 0,-0.35301 0.35301,-0.15444 0.0883,-0.55159 0.35301,-0.48539 -0.0882,-0.66189 0.1765,-0.57365 -0.26476,-0.52952 z m 5.51582,12.77463 -0.46333,0.70602 -1.05904,0.70603 -0.63983,0.11031 -1.47824,-1.98569 0,-0.1765 -1.56649,-2.51522 -0.28682,0 -0.46333,-1.36792 -0.59571,-0.13238 -0.13238,-1.23554 -0.33095,-0.37508 -0.33095,0.28683 0.0441,-0.0221 0.30889,0.17651 -0.35302,1.52236 0.0662,1.61062 -0.19857,0.26476 0.4854,2.09601 -0.26476,0.88253 -1.78713,0.28682 -0.39714,0.0221 -1.05903,-0.33095 -0.0441,-1.69887 0.35301,-0.63984 -0.22063,-0.81634 0.15444,-2.44902 -0.0883,-1.5003 0.28682,-1.72094 -0.1765,-0.97078 0.19857,-0.92666 -0.28683,-0.48539 0.33095,-1.38998 0.0221,-2.33871 0.0662,-0.50745 0.0882,-0.30889 -0.0441,-0.22063 -0.28682,-0.77222 0.70602,-0.61777 0.39714,0.11032 0.44127,-0.17651 1.0811,-0.0883 2.20632,0.17651 1.5003,0.57364 0.0221,0.35301 0.68396,0.26476 0.6619,1.14729 0.11031,0.99285 0.37508,0.35301 -0.17651,1.47824 -0.19857,0.75015 0.0883,0.48539 -0.63984,0.55158 -0.0221,0.0441 0.0441,0.0662 -0.33094,1.19141 -0.44127,0.17651 c 0,0.0221 0,0.50746 0,0.50746 l -0.86047,0.30888 0.0221,0.15444 0.55158,0.15445 0,0.61777 0.22063,0.28682 0.70603,0.44127 0,0.44126 0.46332,0.26476 0.0221,0.4192 0.26476,0.26476 0.0882,0.44127 0.35301,0.57364 0.61777,0.33095 0.0441,0.88253 0.77221,0.61777 0.46333,0.68396 0.11032,0.35302 0.37507,0.48539 -0.57364,0.15444" style="fill:#ffffff;fill-rule:nonzero;stroke:none" clip-path="none"/>
          <path clip-path="none" style="fill:#ffffff;fill-rule:nonzero;stroke:none" d="m -114.72674,340.24052 -0.17651,-0.11031 0.0441,-1.38999 -0.52952,0 -0.19857,0.94872 -0.2427,1.21348 0.0662,0.19857 -0.13238,0.92666 -0.0883,1.16935 0.88253,0 0.79428,-0.0441 -0.4192,-2.91235 z m 4.39059,11.84797 -1.45617,0.19857 -0.50746,0.52952 -0.4192,-0.99285 -0.28683,-0.24269 0,-1.76506 -0.5957,-0.88253 -0.66191,-2.8241 -1.05903,-0.15444 -1.27967,0.15444 -0.26476,0.68396 0,0.57365 -0.17651,0.24269 -0.0221,1.87538 -0.48539,2.75791 -2.25045,0 -0.28683,0.19856 -0.52952,0.0221 0.26476,-1.89744 0,-0.59571 1.05904,-3.04473 0,-1.12523 0.46333,-1.45617 0,-0.99285 0.37507,-0.86047 0,-0.66189 0.41921,-2.60347 0.39713,-0.97078 -0.11031,-0.86047 0.48539,-0.6619 0.17651,-1.65474 0.37507,-0.52952 -0.24269,-0.30888 1.65474,-0.13238 0.81634,-0.37508 0.86047,0.33094 0.39714,0.88253 0.30889,0.72809 -0.0441,0.22064 0.33093,0.7722 0.0221,0.86047 0.35301,0.28682 -0.33095,0.39714 0.35301,0.52952 0.0221,0.88253 0.52951,0.94872 0,1.34586 0.22065,1.34586 0.52952,1.03697 -0.33095,0.46333 0.70602,2.09601 -0.0662,0.52952 0.4192,1.34586 0.0221,0.70602 0.72808,2.22839 -0.88253,0.4192" id="path3469" inkscape:connector-curvature="0"/>
          <path inkscape:connector-curvature="0" id="path3471" d="m -91.714455,338.66303 -0.35301,-0.81634 -0.97078,-0.86047 -1.23556,0 -0.0441,0.97078 0.15444,0.59571 -0.0221,0.9046 -0.22063,0.5957 0.0441,0.37508 0.0883,2.09601 -0.17651,0.15444 0.17651,0.17651 0.0221,0.1765 0.28683,0.0662 1.14728,-0.4192 0.8384,-1.32379 -0.0441,-0.94872 0.11031,-1.01491 0.19857,-0.72809 z m 2.66966,2.77997 -0.4192,2.14014 -0.61778,0.57364 -0.77222,1.30173 -1.78712,0.39714 -0.83841,0 -0.50745,-0.0221 0.0441,0.22063 0.19857,0.15444 -0.30888,0.72809 -0.1765,0.2427 0.26475,0.52952 -0.22063,0.72808 0.30888,0.4854 -0.26475,0.68396 0.0883,2.29458 -0.28682,0.4192 -0.92666,0 -0.57365,0.19857 -1.54442,-0.30889 -0.13238,-1.98569 0.13238,-2.55934 -0.0441,-0.94872 -0.0662,-1.10316 0.0662,-0.86047 -0.0662,-0.97078 0.26476,-2.25046 -0.35301,-1.23554 0.24268,-2.33871 -0.0662,-0.55158 0.0883,-0.66189 -0.37508,-0.2427 0.26476,-0.55158 -0.0662,-0.0662 0.17651,-0.72809 -0.11032,-0.0882 0,-0.48539 2.16219,-0.55159 3.24331,0.26476 1.23554,0.44127 -0.17651,0.15444 0.63984,0.30889 0.37506,0.63983 0.44127,0.35301 0.37507,0.75015 0.28683,1.14729 0.0883,1.76507 0.17651,0.48539 -0.46333,1.10316" style="fill:#ffffff;fill-rule:nonzero;stroke:none" clip-path="none"/>
        </g>
      </g>
    </g>
  </g>
</svg>